<svg width="40" height="53" viewBox="0 0 40 53" fill="none" xmlns="http://www.w3.org/2000/svg">
<path d="M22.8109 0.850098C23.5143 0.850098 24.191 1.11965 24.7017 1.60331L38.4617 14.6333C39.0101 15.1527 39.3208 15.8748 39.3208 16.6301V50.8892C39.3208 51.5795 38.7612 52.1392 38.0708 52.1392H1.5C0.809645 52.1392 0.25 51.5795 0.25 50.8892V2.1001C0.25 1.40974 0.809644 0.850098 1.5 0.850098H22.8109Z" fill="white" stroke="#E9E9EB" stroke-width="0.5"/>
<path d="M25.4883 3.7241L37.5592 15.1547H28.9883C27.0553 15.1547 25.4883 13.5877 25.4883 11.6547V3.7241Z" fill="white" stroke="#E9E9EB"/>
<path d="M19.5 36V19M19.5 36L26 29.5M19.5 36C16.9616 33.4616 13 29.5 13 29.5" stroke="#567DFF" stroke-width="2" stroke-linecap="round" stroke-linejoin="round"/>
</svg>
