<svg width="40" height="53" viewBox="0 0 40 53" fill="none" xmlns="http://www.w3.org/2000/svg">
<path d="M22.8109 0.850098C23.5143 0.850098 24.191 1.11965 24.7017 1.60331L38.4617 14.6333C39.0101 15.1527 39.3208 15.8748 39.3208 16.6301V50.8892C39.3208 51.5795 38.7612 52.1392 38.0708 52.1392H1.5C0.809645 52.1392 0.25 51.5795 0.25 50.8892V2.1001C0.25 1.40974 0.809644 0.850098 1.5 0.850098H22.8109Z" fill="white" stroke="#E9E9EB" stroke-width="0.5"/>
<path d="M25.4883 3.7241L37.5592 15.1547H28.9883C27.0553 15.1547 25.4883 13.5877 25.4883 11.6547V3.7241Z" fill="white" stroke="#E9E9EB"/>
<circle cx="19" cy="28" r="12.35" stroke="#567DFF" stroke-width="1.3"/>
<path d="M24.1415 22.7486L24.2011 22.8012C24.4292 23.0293 24.4467 23.3882 24.2537 23.6364L24.2011 23.696L19.8948 28.0023L24.2011 32.3086C24.4292 32.5367 24.4467 32.8956 24.2537 33.1438L24.2011 33.2034C23.973 33.4315 23.6141 33.449 23.3659 33.256L23.3063 33.2034L19 28.8971L14.6937 33.2034C14.4656 33.4315 14.1067 33.449 13.8585 33.256L13.7989 33.2034C13.5708 32.9753 13.5533 32.6164 13.7463 32.3682L13.7989 32.3086L18.1052 28.0023L13.7989 23.696C13.5708 23.4679 13.5533 23.109 13.7463 22.8608L13.7989 22.8012C14.027 22.5731 14.3859 22.5556 14.6341 22.7486L14.6937 22.8012L19 27.1075L23.3063 22.8012C23.5344 22.5731 23.8933 22.5556 24.1415 22.7486L24.2011 22.8012L24.1415 22.7486Z" fill="#567DFF"/>
</svg>
