<svg width="22" height="22" viewBox="0 0 22 22" fill="none" xmlns="http://www.w3.org/2000/svg">
<path d="M10.8813 0.00737253L11 0C11.4824 0 11.8805 0.360975 11.9389 0.827543L11.9462 0.946237V10.0538H21.0538C21.5362 10.0538 21.9342 10.4147 21.9926 10.8813L22 11C22 11.4824 21.639 11.8805 21.1725 11.9389L21.0538 11.9462H11.9462V21.0538C11.9462 21.5362 11.5853 21.9342 11.1187 21.9926L11 22C10.5176 22 10.1195 21.639 10.0611 21.1725L10.0538 21.0538V11.9462H0.946237C0.463844 11.9462 0.0657616 11.5853 0.00737253 11.1187L0 11C0 10.5176 0.360975 10.1195 0.827543 10.0611L0.946237 10.0538H10.0538V0.946237C10.0538 0.463844 10.4147 0.0657616 10.8813 0.00737253L11 0L10.8813 0.00737253Z" fill="#567DFF"/>
</svg>
