<svg width="20" height="20" viewBox="0 0 20 20" fill="none" xmlns="http://www.w3.org/2000/svg">
<path d="M19.7747 1.31316C20.0751 1.01276 20.0751 0.525706 19.7747 0.225302C19.4743 -0.0751009 18.9872 -0.0751007 18.6868 0.225303L6.37915 12.533L6.15397 13.8462L7.46701 13.6209L19.7747 1.31316ZM3.84615 1.53846C1.72198 1.53846 0 3.26044 0 5.38462V16.1538C0 18.278 1.72198 20 3.84616 20H14.6154C16.7396 20 18.4615 18.278 18.4615 16.1538V8.46154C18.4615 8.03671 18.1171 7.69231 17.6923 7.69231C17.2675 7.69231 16.9231 8.03671 16.9231 8.46154V16.1538C16.9231 17.4284 15.8899 18.4615 14.6154 18.4615H3.84616C2.57165 18.4615 1.53846 17.4284 1.53846 16.1538V5.38462C1.53846 4.11011 2.57165 3.07692 3.84615 3.07692H11.5455C11.9704 3.07692 12.3148 2.73253 12.3148 2.30769C12.3148 1.88286 11.9704 1.53846 11.5455 1.53846H3.84615Z" fill="#567DFF"/>
</svg>
