<svg width="16" height="16" viewBox="0 0 16 16" fill="none" xmlns="http://www.w3.org/2000/svg">
<path fill-rule="evenodd" clip-rule="evenodd" d="M12.6 6.3C12.6 2.82061 9.77939 0 6.3 0C2.82061 0 0 2.82061 0 6.3C0 9.77939 2.82061 12.6 6.3 12.6C7.66364 12.6 8.92609 12.1668 9.95721 11.4304L13.9648 15.4376L14.057 15.5182C14.4098 15.7866 14.9154 15.7598 15.2376 15.4376C15.5891 15.0861 15.5891 14.5163 15.2376 14.1648L11.2589 10.1863C12.099 9.11575 12.6 7.76638 12.6 6.3ZM1.2 6.3C1.2 3.48335 3.48335 1.2 6.3 1.2C9.11665 1.2 11.4 3.48335 11.4 6.3C11.4 9.11665 9.11665 11.4 6.3 11.4C3.48335 11.4 1.2 9.11665 1.2 6.3Z" fill="#8E8E93"/>
</svg>
