<svg width="38" height="38" viewBox="0 0 38 38" fill="none" xmlns="http://www.w3.org/2000/svg">
<g clip-path="url(#clip0_829_893)">
<path d="M19 0C8.512 0 0 8.512 0 19C0 29.488 8.512 38 19 38C29.488 38 38 29.488 38 19C38 8.512 29.488 0 19 0ZM25.707 19.057C25.422 19.342 25.061 19.475 24.7 19.475C24.339 19.475 23.978 19.342 23.693 19.057L20.425 15.789V25.65C20.425 26.429 19.779 27.075 19 27.075C18.221 27.075 17.575 26.429 17.575 25.65V15.789L14.307 19.057C13.756 19.608 12.844 19.608 12.293 19.057C12.028 18.7888 11.8794 18.427 11.8794 18.05C11.8794 17.673 12.028 17.3112 12.293 17.043L17.993 11.343C18.544 10.792 19.456 10.792 20.007 11.343L25.707 17.043C26.258 17.594 26.258 18.506 25.707 19.057Z" fill="#567DFF"/>
</g>
<defs>
<clipPath id="clip0_829_893">
<rect width="38" height="38" fill="white"/>
</clipPath>
</defs>
</svg>
