<svg width="24" height="24" viewBox="0 0 24 24" fill="none" xmlns="http://www.w3.org/2000/svg">
<path fill-rule="evenodd" clip-rule="evenodd" d="M4.46967 4.46967C4.76256 4.17678 5.23744 4.17678 5.53033 4.46967L19.5303 18.4697C19.8232 18.7626 19.8232 19.2374 19.5303 19.5303C19.2374 19.8232 18.7626 19.8232 18.4697 19.5303L4.46967 5.53033C4.17678 5.23744 4.17678 4.76256 4.46967 4.46967Z" fill="#567DFF"/>
<path d="M3.80078 3.76367L20.1996 20.1625" stroke="#567DFF" stroke-width="1.5" stroke-linecap="round"/>
<circle cx="12.0005" cy="12" r="3.23684" stroke="#567DFF" stroke-width="1.5"/>
<path d="M20.5953 10.3669C21.494 11.2972 21.494 12.7031 20.5953 13.6334C18.6471 15.6502 15.4811 18.1833 12.0006 18.1833C8.52018 18.1833 5.35422 15.6502 3.40594 13.6334C2.50729 12.7031 2.50729 11.2972 3.40594 10.3669C5.35422 8.35 8.52018 5.81689 12.0006 5.81689C15.4811 5.81689 18.6471 8.35 20.5953 10.3669Z" stroke="#567DFF" stroke-width="1.5"/>
</svg>
