<svg width="24" height="24" viewBox="0 0 24 24" fill="none" xmlns="http://www.w3.org/2000/svg">
<circle cx="12" cy="12" r="12" fill="#313131"/>
<path d="M7.26929 16.7308C7.38574 16.8472 7.52402 16.9272 7.68413 16.9709C7.8491 17.0097 8.01164 17.0097 8.17176 16.9709C8.33673 16.9272 8.47744 16.8496 8.59389 16.7381L12 13.3259L15.4134 16.7308C15.5298 16.8521 15.6657 16.9321 15.821 16.9709C15.9811 17.0097 16.1412 17.0097 16.3013 16.9709C16.4663 16.9272 16.607 16.8448 16.7234 16.7235C16.8496 16.6071 16.9321 16.4689 16.9709 16.3088C17.0097 16.1439 17.0097 15.9814 16.9709 15.8214C16.9321 15.6613 16.852 15.5231 16.7307 15.4067L13.3319 11.9945L16.7307 8.58967C16.852 8.47326 16.9321 8.33503 16.9709 8.17497C17.0097 8.01491 17.0097 7.85486 16.9709 7.6948C16.9321 7.52989 16.8496 7.38923 16.7234 7.27283C16.607 7.15157 16.4663 7.07154 16.3013 7.03274C16.1412 6.98909 15.9811 6.98909 15.821 7.03274C15.6657 7.07154 15.5298 7.14915 15.4134 7.26555L12 10.6704L8.59389 7.25828C8.47744 7.14672 8.33673 7.07154 8.17176 7.03274C8.01164 6.98909 7.8491 6.98909 7.68413 7.03274C7.52402 7.07154 7.38574 7.14915 7.26929 7.26555C7.14799 7.38681 7.06793 7.52989 7.02911 7.6948C6.9903 7.85486 6.9903 8.01491 7.02911 8.17497C7.06793 8.33503 7.14556 8.47326 7.26201 8.58967L10.6754 11.9945L7.26201 15.4067C7.14556 15.5231 7.06793 15.6613 7.02911 15.8214C6.9903 15.9814 6.9903 16.1439 7.02911 16.3088C7.06793 16.4689 7.14799 16.6096 7.26929 16.7308Z" fill="#8E8E93"/>
</svg>
