<svg width="18" height="18" viewBox="0 0 18 18" fill="none" xmlns="http://www.w3.org/2000/svg">
<path fill-rule="evenodd" clip-rule="evenodd" d="M2.63604 15.364C1.80031 14.5282 1.13738 13.5361 0.685084 12.4442C0.232792 11.3522 8.80582e-09 10.1819 0 9C-8.80581e-09 7.8181 0.232792 6.64778 0.685084 5.55585C1.13738 4.46392 1.80031 3.47177 2.63604 2.63604C3.47177 1.80031 4.46392 1.13738 5.55585 0.685084C6.64778 0.232792 7.8181 -8.80582e-09 9 0C10.1819 8.80582e-09 11.3522 0.232792 12.4442 0.685084C13.5361 1.13738 14.5282 1.80031 15.364 2.63604C17.0518 4.32387 18 6.61305 18 9C18 11.3869 17.0518 13.6761 15.364 15.364C13.6761 17.0518 11.3869 18 9 18C6.61305 18 4.32387 17.0518 2.63604 15.364ZM6.78381 5.59134C6.62386 5.4423 6.41232 5.36117 6.19373 5.36502C5.97515 5.36888 5.7666 5.45743 5.61201 5.61201C5.45743 5.7666 5.36888 5.97515 5.36502 6.19373C5.36117 6.41232 5.4423 6.62386 5.59134 6.78381L7.80753 9L5.59134 11.2162C5.50844 11.2934 5.44195 11.3866 5.39584 11.4901C5.34972 11.5936 5.32493 11.7053 5.32293 11.8186C5.32093 11.9319 5.34177 12.0444 5.3842 12.1495C5.42664 12.2545 5.4898 12.35 5.56992 12.4301C5.65004 12.5102 5.74547 12.5734 5.85053 12.6158C5.95559 12.6582 6.06812 12.6791 6.18141 12.6771C6.2947 12.6751 6.40642 12.6503 6.50992 12.6042C6.61342 12.558 6.70656 12.4916 6.78381 12.4087L9 10.1925L11.2162 12.4087C11.2934 12.4916 11.3866 12.558 11.4901 12.6042C11.5936 12.6503 11.7053 12.6751 11.8186 12.6771C11.9319 12.6791 12.0444 12.6582 12.1495 12.6158C12.2545 12.5734 12.35 12.5102 12.4301 12.4301C12.5102 12.35 12.5734 12.2545 12.6158 12.1495C12.6582 12.0444 12.6791 11.9319 12.6771 11.8186C12.6751 11.7053 12.6503 11.5936 12.6042 11.4901C12.558 11.3866 12.4916 11.2934 12.4087 11.2162L10.1925 9L12.4087 6.78381C12.4916 6.70656 12.558 6.61342 12.6042 6.50992C12.6503 6.40642 12.6751 6.2947 12.6771 6.18141C12.6791 6.06812 12.6582 5.95559 12.6158 5.85053C12.5734 5.74547 12.5102 5.65004 12.4301 5.56992C12.35 5.4898 12.2545 5.42664 12.1495 5.3842C12.0444 5.34177 11.9319 5.32093 11.8186 5.32293C11.7053 5.32493 11.5936 5.34972 11.4901 5.39584C11.3866 5.44195 11.2934 5.50844 11.2162 5.59134L9 7.80753L6.78381 5.59134Z" fill="#D8DAE2" fill-opacity="0.5"/>
</svg>
