<svg width="26" height="26" viewBox="0 0 26 26" fill="current" xmlns="http://www.w3.org/2000/svg">
<path fill-rule="evenodd" clip-rule="evenodd" d="M13 0C20.1797 0 26 5.8203 26 13C26 20.1797 20.1797 26 13 26C5.8203 26 0 20.1797 0 13C0 5.8203 5.8203 0 13 0ZM13.0014 16.6401C10.1001 16.6401 7.43005 17.1602 5.31066 19.2929C4.95441 19.6514 4.83201 20.2674 5.21918 20.6607C7.19992 22.6727 9.95497 23.9202 13.0014 23.9202C16.0483 23.9202 18.8036 22.6724 20.7846 20.6592C21.1718 20.2656 21.0491 19.6497 20.6925 19.2912C18.5731 17.1602 15.9029 16.6401 13.0014 16.6401ZM8.83984 9.35971C8.83984 7.0622 10.7024 5.19971 12.9998 5.19971C15.2973 5.19971 17.1598 7.0622 17.1598 9.35971C17.1598 11.6572 15.2973 13.5197 12.9998 13.5197C10.7024 13.5197 8.83984 11.6572 8.83984 9.35971Z" fill="current"/>
</svg>
