<svg width="26" height="26" viewBox="0 0 26 26" fill="current" xmlns="http://www.w3.org/2000/svg">
    <path fill-rule="evenodd" clip-rule="evenodd"
        d="M13 24.8783C20.1797 24.8783 26 19.3091 26 12.4392C26 5.5692 20.1797 0 13 0C5.8203 0 0 5.5692 0 12.4392C0 14.2895 0.476872 16.2342 1.43061 18.2731L1.64228 18.7115C2.35901 20.1511 2.39717 21.8344 1.74643 23.3048C1.14295 24.6685 1.04025 25.5159 1.43831 25.8471C1.87425 26.2099 3.12931 25.927 5.20349 24.9985L5.76316 24.7416C6.83514 24.2382 8.04019 24.1008 9.19368 24.3454L9.48087 24.4146C10.6272 24.7237 11.8002 24.8783 13 24.8783Z"
        fill="current" />
</svg>