<svg width="26" height="26" viewBox="0 0 26 26" fill="current" xmlns="http://www.w3.org/2000/svg">
<path d="M24.7172 16.1242L22.471 14.8347C22.6977 13.6185 22.6977 12.371 22.471 11.1548L24.7172 9.86533C24.9756 9.71856 25.0916 9.41453 25.0073 9.13147C24.422 7.26534 23.4254 5.57745 22.123 4.17261C21.9226 3.9577 21.5957 3.90528 21.3426 4.05205L19.0963 5.34156C18.1524 4.53431 17.0662 3.91052 15.8903 3.50165V0.927868C15.8903 0.634321 15.6847 0.377467 15.3947 0.314564C13.4595 -0.115273 11.4769 -0.0943054 9.63663 0.314564C9.34661 0.377467 9.14097 0.634321 9.14097 0.927868V3.50689C7.97038 3.921 6.88415 4.54479 5.93502 5.3468L3.69402 4.05729C3.43565 3.91052 3.114 3.9577 2.91362 4.17786C1.61121 5.57745 0.614621 7.26534 0.0293239 9.13671C-0.0603162 9.41977 0.0609615 9.7238 0.319336 9.87058L2.56561 11.1601C2.33887 12.3762 2.33887 13.6238 2.56561 14.8399L0.319336 16.1294C0.0609615 16.2762 -0.0550432 16.5802 0.0293239 16.8633C0.614621 18.7294 1.61121 20.4173 2.91362 21.8221C3.114 22.0371 3.44092 22.0895 3.69402 21.9427L5.94029 20.6532C6.88415 21.4605 7.97038 22.0842 9.14624 22.4931V25.0721C9.14624 25.3657 9.35189 25.6225 9.6419 25.6854C11.5771 26.1153 13.5597 26.0943 15.4 25.6854C15.69 25.6225 15.8956 25.3657 15.8956 25.0721V22.4931C17.0662 22.079 18.1524 21.4552 19.1016 20.6532L21.3478 21.9427C21.6062 22.0895 21.9279 22.0423 22.1282 21.8221C23.4306 20.4226 24.4272 18.7347 25.0125 16.8633C25.0916 16.575 24.9756 16.271 24.7172 16.1242ZM12.5157 17.1883C10.1903 17.1883 8.2973 15.3064 8.2973 12.9948C8.2973 10.6831 10.1903 8.80123 12.5157 8.80123C14.841 8.80123 16.734 10.6831 16.734 12.9948C16.734 15.3064 14.841 17.1883 12.5157 17.1883Z" fill="current"/>
</svg>
